<?xml version="1.0" encoding="utf-8"?>
<!-- Generator: Adobe Illustrator 19.0.0, SVG Export Plug-In . SVG Version: 6.00 Build 0)  -->
<svg version="1.1" id="Calque_1" xmlns="http://www.w3.org/2000/svg" xmlns:xlink="http://www.w3.org/1999/xlink" x="0px" y="0px"
	 viewBox="184 -114.8 114 134.2" style="enable-background:new 184 -114.8 114 134.2;" xml:space="preserve">
<style type="text/css">
	.st0{display:none;fill:#3A3431;}
	.st1{clip-path:url(#SVGID_2_);}
	.st2{fill:#23B6FA;}
	.st3{fill:#1656D5;}
	.st4{fill:#2F8FD8;}
	.st5{fill:#296DD3;}
	.st6{fill:#1E85F4;}
	.st7{display:none;}
	.st8{display:inline;fill:#3A3431;}
</style>
	<g>
	<polygon class="st0" points="344.7,108.8 344.7,91.9 284.3,91.9 284.3,108.8 305.1,108.8 305.6,108.8 305.6,109.3 305.6,167.4
		323.5,167.4 323.5,109.3 323.5,108.8 324,108.8 	"/>
		<polygon class="st0" points="367.7,136.4 367.7,135.9 368.2,135.9 392,135.9 392,122.2 368.2,122.2 367.7,122.2 367.7,121.7
		367.7,109.3 367.7,108.8 368.2,108.8 395.2,108.8 395.2,91.9 349.7,91.9 349.7,167.4 396.2,167.4 396.2,151.3 368.2,151.3
		367.7,151.3 367.7,150.8 	"/>
		<path class="st0" d="M400.5,130c0.1,25.7,19.8,37.3,38,37.3h0.3c15.1,0,32.2-7.6,35.2-28.8h-18c-2.1,7.6-8.5,12.2-17.2,12.2
		c-11.2-0.1-19.3-8.8-19.3-20.8c0-12.9,7.7-21.5,19.3-21.5c7,0,12.1,2.6,15.2,7.6l15.1-9.1c-6-9.5-17.3-15.2-30.3-15.2
		c-9.9,0-19.2,3.4-26.2,9.6C404.7,108.4,400.6,118.3,400.5,130z"/>
		<polygon class="st0" points="244.1,157.8 244.4,157.8 274.2,157.8 274.6,157.8 274.7,158.1 279,167.4 297.1,167.4 297.1,165.2
		286.5,142.2 267.9,142.2 250.8,142.2 250,142.2 250.3,141.5 258.7,121.6 259.2,120.5 259.7,121.6 264.8,133.3 278.6,125.1
		263.2,91.9 252.3,98.5 221.5,165.2 221.5,167.4 239.6,167.4 243.9,158.1 	"/>
		<g>
		<g>
			<defs>
				<path id="SVGID_1_" d="M293.8-83.7l-48.2-28.9c-1.4-0.8-3-1.2-4.5-1.2c-1.6,0-3.1,0.4-4.5,1.2l-48.3,28.9
					c-2.6,1.6-4.3,4.4-4.3,7.5v57.9c0,3.1,1.6,5.9,4.3,7.5l48.2,28.9c1.4,0.8,3,1.3,4.5,1.3c1.6,0,3.1-0.4,4.5-1.3l48.2-28.9
					c2.6-1.6,4.3-4.4,4.3-7.5v-57.9C298-79.2,296.4-82.1,293.8-83.7z"/>
			</defs>
			<clipPath id="SVGID_2_">
				<use xlink:href="#SVGID_1_"  style="overflow:visible;"/>
			</clipPath>
			<g class="st1">
				<polygon class="st2" points="181,-83.2 241,-119.2 301,-83.2 301,-11.2 241,24.8 181,-11.2 				"/>
				<polygon class="st3" points="241,-47.2 181,-83.2 241,-119.2 301,-83.2 				"/>
				<polygon class="st4" points="181,-11.2 241,-47.2 181,-83.2 				"/>
				<polygon class="st5" points="241,24.8 181,-11.2 241,-47.2 				"/>
				<polygon class="st6" points="301,-11.2 241,-47.2 241,24.8 				"/>
			</g>
		</g>
	</g>
		<g class="st7">
		<path class="st8" d="M523,91.9v38.2l-34.6-34.7l-9.5,5.7v66.3c6.5,0,11.2,0,17.8,0v-38l37.2,37.9h7V91.9
			C534.4,91.9,529.6,91.9,523,91.9z"/>
	</g>
		<path class="st0" d="M590.8,98.5L579.9,92l-23.3,50.2l0,0l-10.6,23v2.2h18.1l4.3-9.2l0.1-0.3h0.3h29.8h0.3l0.1,0.3l4.3,9.2h18.1
		v-2.2L590.8,98.5z M592.3,142.2h-17.1h-0.8l9-20.6l0.5-1.1l0.5,1.1l8.4,19.9l0.3,0.7H592.3z"/>
</g>
</svg>
